HIERARCHY
ROOT Hips
{
	OFFSET -3.958830 18.904000 13.208200
	CHANNELS 6 Xposition Yposition Zposition Zrotation Yrotation Xrotation 
	JOINT LHipJoint
	{
		OFFSET 0.000000 0.000000 0.000000
		CHANNELS 3 Zrotation Yrotation Xrotation
		JOINT LeftUpLeg
		{
			OFFSET 1.800000 -1.400000 0.085000
			CHANNELS 3 Zrotation Yrotation Xrotation
			JOINT LeftLeg
			{
				OFFSET 2.215000 -6.000000 0.000000
				CHANNELS 3 Zrotation Yrotation Xrotation
				JOINT LeftFoot
				{
					OFFSET 2.500000 -6.900000 0.000000
					CHANNELS 3 Zrotation Yrotation Xrotation
					JOINT LeftToeBase
					{
						OFFSET 0.200000 -0.500000 1.950000
						CHANNELS 3 Zrotation Yrotation Xrotation
						End Site
						{
							OFFSET 0.000000 0.000000 0.000000
						}
					}
				}
			}
		}
	}
	JOINT RHipJoint
	{
		OFFSET 0.000000 0.000000 0.000000
		CHANNELS 3 Zrotation Yrotation Xrotation
		JOINT RightUpLeg
		{
			OFFSET -1.800000 -1.400000 0.085000
			CHANNELS 3 Zrotation Yrotation Xrotation
			JOINT RightLeg
			{
				OFFSET -2.215000 -6.000000 0.000000
				CHANNELS 3 Zrotation Yrotation Xrotation
				JOINT RightFoot
				{
					OFFSET -2.500000 -6.900000 0.000000
					CHANNELS 3 Zrotation Yrotation Xrotation
					JOINT RightToeBase
					{
						OFFSET -0.200000 -0.500000 1.950000
						CHANNELS 3 Zrotation Yrotation Xrotation
						End Site
						{
							OFFSET 0.000000 0.000000 0.000000
						}
					}
				}
			}
		}
	}
	JOINT LowerBack
	{
		OFFSET 0.000000 0.000000 0.000000
		CHANNELS 3 Zrotation Yrotation Xrotation
		JOINT Spine
		{
			OFFSET -0.087000 1.940000 -0.288900
			CHANNELS 3 Zrotation Yrotation Xrotation
			JOINT Spine1
			{
				OFFSET 0.000000 1.950000 0.060000
				CHANNELS 3 Zrotation Yrotation Xrotation
				JOINT Neck
				{
					OFFSET 0.000000 0.000000 0.000000
					CHANNELS 3 Zrotation Yrotation Xrotation
					JOINT Neck1
					{
						OFFSET 0.000000 1.600000 0.340000
						CHANNELS 3 Zrotation Yrotation Xrotation
						JOINT Head
						{
							OFFSET 0.000000 1.667000 -0.240000
							CHANNELS 3 Zrotation Yrotation Xrotation
							End Site
							{
								OFFSET 0.000000 0.000000 0.000000
							}
						}
					}
				}
				JOINT LeftShoulder
				{
					OFFSET 0.000000 0.000000 0.000000
					CHANNELS 3 Zrotation Yrotation Xrotation
					JOINT LeftArm
					{
						OFFSET 2.700000 1.550000 -0.730000
						CHANNELS 3 Zrotation Yrotation Xrotation
						JOINT LeftForeArm
						{
							OFFSET 5.450000 0.000000 0.000000
							CHANNELS 3 Zrotation Yrotation Xrotation
							JOINT LeftHand
							{
								OFFSET 3.450000 0.000000 0.000000
								CHANNELS 3 Zrotation Yrotation Xrotation
								JOINT LeftHandIndex1
								{
									OFFSET 0.750000 0.000000 0.000000
									CHANNELS 3 Zrotation Yrotation Xrotation
									End Site
									{
										OFFSET 0.000000 0.000000 0.000000
									}
								}
							}
						}
					}
				}
				JOINT RightShoulder
				{
					OFFSET 0.000000 0.000000 0.000000
					CHANNELS 3 Zrotation Yrotation Xrotation
					JOINT RightArm
					{
						OFFSET -2.700000 1.550000 -0.730000
						CHANNELS 3 Zrotation Yrotation Xrotation
						JOINT RightForeArm
						{
							OFFSET -5.450000 0.000000 0.000000
							CHANNELS 3 Zrotation Yrotation Xrotation
							JOINT RightHand
							{
								OFFSET -3.450000 0.000000 0.000000
								CHANNELS 3 Zrotation Yrotation Xrotation
								JOINT RightHandIndex1
								{
									OFFSET -0.750000 0.000000 0.000000
									CHANNELS 3 Zrotation Yrotation Xrotation
									End Site
									{
										OFFSET 0.000000 0.000000 0.000000
									}
								}
							}
						}
					}
				}
			}
		}
	}
}
MOTION
Frames: 9
Frame Time: 0.016667
-3.251980 16.461270 -1.202650 -6.061763 -26.901491 -2.318865 -15.809149 14.324834 3.663493 33.382807 -1.837503 -8.007981 -11.539751 14.097056 25.552808 0.341194 8.460010 1.418577 0.366530 0.309420 0.375670 17.778662 -9.227271 1.726463 -19.146367 -0.493801 -25.254762 6.299754 -9.096586 31.593432 -0.295734 -4.795960 2.491243 0.243190 -0.018250 0.126640 -1.659026 -6.803277 -7.608866 -5.451450 -4.794424 8.277005 2.030070 -4.704610 10.249941 -4.944649 -7.574407 -13.315804 -21.119739 9.685852 27.923479 -7.160100 10.891830 -12.867240 6.924690 -18.306377 -3.231335 -16.817047 -48.417910 16.180676 -177.540902 -75.977644 176.748110 -3.624627 3.393732 0.241190 0.074040 0.105290 0.055290 3.647892 20.801592 16.202425 50.011633 -8.029208 -8.530101 64.218420 50.739390 22.312361 2.090865 -1.978045 -0.074610 0.124710 -0.095700 -0.187740 
-3.233570 16.480650 -1.171480 -6.494300 -26.390023 -2.811279 -15.798531 14.405275 3.605843 33.345459 -1.785306 -7.246166 -10.786831 13.734966 25.030028 0.331992 8.344991 1.476043 0.361400 0.305090 0.381390 17.767372 -9.340452 1.637194 -18.441440 -0.484732 -23.972312 5.914188 -8.892748 31.445954 -0.293193 -4.739872 2.528401 0.241620 -0.011070 0.125240 -1.634738 -6.758592 -7.507699 -6.088168 -4.791107 7.434918 2.270283 -4.801172 10.590613 -4.876262 -7.199535 -13.362495 -19.651759 9.674785 27.486948 -7.278370 11.491040 -13.122280 7.345489 -17.874325 -2.701565 -13.840861 -47.908328 15.482427 172.124300 -73.441571 -170.005580 -3.719075 3.438011 0.236720 0.083460 0.102900 0.057380 3.100123 20.208967 15.911153 49.896077 -7.716386 -8.015035 65.221530 50.701208 22.903548 2.091468 -1.987338 -0.081340 0.127800 -0.100910 -0.191170 
-3.214520 16.497120 -1.140130 -6.657433 -25.761374 -3.471881 -15.786441 14.553019 3.529540 32.938519 -1.673666 -6.619118 -9.802218 13.324853 24.833688 0.319244 8.204512 1.532407 0.367700 0.325690 0.364390 17.750676 -9.475756 1.518612 -17.752037 -0.532547 -22.449232 4.882155 -8.282276 30.743706 -0.270824 -4.560841 2.602920 0.255200 0.001040 0.132450 -1.593828 -6.806556 -7.375645 -6.722427 -4.693002 6.614981 2.678858 -4.778333 11.042874 -5.054463 -7.005591 -13.432597 -18.840441 9.999398 26.897122 -6.538150 11.814400 -13.085640 7.755279 -17.380149 -2.281209 -12.745137 -48.138098 15.849759 164.788542 -70.803936 -159.816544 -3.792223 3.443504 0.220820 0.093850 0.097360 0.066930 3.020141 19.602053 15.775408 49.588648 -8.133540 -7.749514 66.643180 51.340334 24.015309 2.082632 -2.018163 -0.073960 0.120630 -0.102530 -0.179990 
-3.198260 16.505800 -1.116110 -6.827982 -25.467294 -4.099459 -15.777133 14.643788 3.504503 32.881075 -1.647701 -5.870082 -9.338494 13.143527 24.592669 0.334514 8.152051 1.564666 0.367170 0.328650 0.353770 17.740834 -9.583278 1.416834 -17.159643 -0.606754 -21.377786 3.661056 -7.754583 30.576618 -0.260852 -4.439474 2.662700 0.250930 0.006060 0.133500 -1.564404 -6.814551 -7.299876 -7.286094 -4.625086 6.021828 2.793993 -4.747581 11.270941 -5.053059 -6.918333 -13.650940 -18.522633 10.119676 26.713181 -6.066520 11.870880 -13.041390 7.982027 -17.243065 -2.134699 -11.438039 -48.015506 15.375536 161.033512 -70.533032 -154.630420 -3.820506 3.434814 0.218270 0.092080 0.098410 0.075540 2.829883 19.469200 16.015275 49.813104 -8.668306 -7.663010 68.576909 53.101482 25.996681 2.087238 -2.037304 -0.068620 0.118390 -0.106220 -0.171420 
-3.185110 16.515560 -1.084710 -6.883586 -25.190632 -4.623813 -15.755850 14.734749 3.466056 32.586257 -1.634473 -5.122328 -8.925704 12.960263 24.402817 0.352870 8.101400 1.607736 0.351730 0.310400 0.328460 17.739395 -9.700200 1.323102 -16.767303 -0.768569 -20.163139 2.537907 -7.181205 29.829747 -0.229944 -4.284212 2.739082 0.242260 0.025320 0.127590 -1.569998 -6.808062 -7.204481 -7.379881 -4.589994 5.245955 2.771992 -4.671657 11.355515 -4.984153 -7.270936 -14.048476 -19.172251 10.508359 26.028549 -5.763680 11.954610 -12.019080 7.984069 -16.870303 -1.685896 -10.634821 -46.926441 14.560357 159.521304 -71.171335 -152.969296 -3.822514 3.450699 0.205410 0.100310 0.080050 0.086870 2.828606 19.389451 16.256813 50.049825 -9.322153 -7.646824 69.865951 54.458913 27.482046 2.093004 -2.061849 -0.075020 0.114510 -0.106360 -0.161380 
-3.177260 16.516510 -1.056640 -6.781881 -24.713124 -5.173111 -15.745872 14.753313 3.455319 32.614429 -1.478227 -4.579285 -8.872956 12.959031 24.157417 0.372811 8.104545 1.621629 0.347010 0.307630 0.309590 17.741541 -9.760973 1.262377 -16.994161 -0.908742 -19.034885 2.375225 -7.070038 29.343783 -0.223380 -4.263814 2.758353 0.241710 0.037920 0.120630 -1.588901 -6.776739 -7.148575 -7.524222 -4.339552 4.727129 2.589639 -4.378806 11.544988 -5.086464 -7.586153 -14.315997 -19.719009 10.517635 25.361874 -5.185150 11.600610 -11.659650 7.951208 -16.360878 -1.424419 -9.235830 -46.832882 14.325225 156.550196 -69.128259 -147.818268 -3.860623 3.410265 0.197260 0.100000 0.068340 0.093980 3.125510 19.136466 16.525670 50.481772 -10.389633 -7.767943 72.236072 56.113536 29.700483 2.102263 -2.074801 -0.076280 0.118650 -0.103940 -0.151170 
-3.163380 16.514710 -1.030760 -6.701037 -24.488369 -5.625396 -15.743206 14.743003 3.456502 32.712709 -1.285587 -3.992910 -9.134233 13.084403 23.887944 0.395070 8.168868 1.618311 0.341270 0.303580 0.290580 17.744607 -9.790017 1.206306 -17.455682 -1.064094 -17.878934 2.533348 -7.022131 28.472696 -0.209590 -4.243073 2.775402 0.247670 0.061830 0.119750 -1.605974 -6.748982 -7.092270 -7.528655 -4.199414 4.110722 2.465227 -4.195481 11.834159 -5.197731 -7.899909 -14.446339 -20.153895 10.452221 24.583423 -4.937260 11.261140 -11.089850 7.826276 -15.712928 -1.031964 -8.382845 -46.558650 14.268187 154.037037 -67.068407 -143.102520 -3.908092 3.363727 0.179300 0.114930 0.048240 0.101270 3.480969 18.737075 16.517889 49.990577 -10.851780 -7.417601 74.505433 57.587216 32.002121 2.114677 -2.084816 -0.081080 0.124970 -0.097320 -0.141530 
-3.150170 16.512110 -1.011640 -6.478807 -24.330570 -6.238304 -15.741720 14.763944 3.438876 32.608132 -1.134289 -3.383353 -9.245043 13.166528 23.793329 0.407853 8.211632 1.619053 0.340260 0.307460 0.278100 17.742671 -9.811327 1.168022 -17.983815 -1.202615 -17.020849 2.664874 -7.059089 28.069328 -0.209399 -4.266093 2.774210 0.256420 0.078340 0.113470 -1.604487 -6.775412 -7.050810 -7.848845 -4.182276 3.710807 2.445867 -4.150201 12.088587 -5.383261 -8.128534 -14.630620 -20.623521 10.697756 24.111338 -4.589180 11.147250 -10.991600 8.026606 -15.415667 -0.700466 -7.212683 -46.185730 13.847135 152.088084 -65.586400 -139.339539 -3.942790 3.313458 0.174180 0.120760 0.038010 0.106810 3.663597 18.605549 16.526375 49.385473 -10.898339 -6.937953 77.009414 58.326057 34.023298 2.131235 -2.075748 -0.088310 0.140140 -0.091640 -0.135860 
-3.131020 16.510150 -0.995030 -6.291696 -24.405433 -6.760120 -15.733039 14.779959 3.420947 32.531620 -1.034796 -2.766475 -9.349609 13.286580 23.885949 0.431514 8.269171 1.614359 0.345850 0.315100 0.271600 17.747009 -9.840116 1.133676 -18.431746 -1.344556 -16.213803 2.658790 -7.002969 27.489646 -0.205286 -4.253162 2.785463 0.264530 0.089510 0.108780 -1.619507 -6.775522 -7.011988 -7.849015 -4.244589 3.307966 2.312883 -4.167223 12.136881 -5.518567 -8.419562 -14.810055 -21.311780 10.979635 23.682547 -4.177270 10.930570 -10.699860 7.913138 -15.482186 -0.602026 -6.483010 -45.732979 13.374551 150.853091 -66.482466 -138.228924 -3.945021 3.315530 0.166410 0.122850 0.029440 0.114170 4.099331 18.844080 16.691074 48.526364 -10.693364 -6.264813 79.761011 59.370054 36.525517 2.169225 -2.058208 -0.089180 0.148100 -0.092940 -0.128580 
